<svg width="12" height="11" viewBox="0 0 12 11" fill="none" xmlns="http://www.w3.org/2000/svg">
<path d="M1.27592 9.66658C1.01653 9.66658 0.794669 9.57422 0.610335 9.3895C0.426002 9.20478 0.333641 8.98331 0.333252 8.72509V2.36675C0.333252 2.25709 0.351335 2.15111 0.387502 2.04884C0.423669 1.94656 0.478113 1.85322 0.550835 1.76884L1.45967 0.678002C1.54406 0.56678 1.64964 0.481613 1.77642 0.422502C1.9032 0.363391 2.0397 0.333641 2.18592 0.333252H7.79175C7.93797 0.333252 8.07584 0.363002 8.20534 0.422502C8.33484 0.481613 8.44275 0.56678 8.52908 0.678002L9.449 1.79159C9.52172 1.87909 9.57617 1.97475 9.61234 2.07859C9.6485 2.18203 9.66658 2.28936 9.66658 2.40059V4.00592C9.66658 4.17081 9.61292 4.30361 9.50559 4.40434C9.39825 4.50506 9.26078 4.55483 9.09317 4.55367C8.77311 4.55756 8.45695 4.60831 8.14467 4.70592C7.83278 4.80392 7.54772 4.94042 7.2895 5.11542C7.16895 5.18658 7.04897 5.19281 6.92958 5.13408C6.8102 5.07536 6.75031 4.98203 6.74992 4.85408V2.55459H3.24992V5.74542C3.24992 5.9282 3.32361 6.06528 3.471 6.15667C3.61839 6.24806 3.77064 6.25253 3.92775 6.17008L4.99992 5.63925L5.84458 6.05984C5.93559 6.10922 5.9982 6.18331 6.03242 6.28208C6.06664 6.38086 6.06061 6.47847 6.01434 6.57492C5.91322 6.7857 5.83661 7.00756 5.7845 7.2405C5.73239 7.47383 5.70634 7.71689 5.70634 7.96967C5.70634 8.16178 5.72364 8.35389 5.75825 8.546C5.79286 8.73811 5.84439 8.92692 5.91283 9.11242C5.96339 9.24775 5.95153 9.37395 5.87725 9.491C5.80336 9.60806 5.69875 9.66658 5.56342 9.66658H1.27592ZM8.84759 8.26425H7.38925C7.30681 8.26425 7.23759 8.23625 7.18158 8.18025C7.12559 8.12425 7.09758 8.05483 7.09758 7.972C7.09758 7.88917 7.12559 7.81995 7.18158 7.76434C7.23759 7.70872 7.30681 7.68092 7.38925 7.68092H8.84759V6.22258C8.84759 6.14014 8.87558 6.07092 8.93159 6.01492C8.98759 5.95892 9.057 5.93092 9.13984 5.93092C9.22267 5.93092 9.29189 5.95892 9.3475 6.01492C9.40311 6.07092 9.43092 6.14014 9.43092 6.22258V7.68092H10.8893C10.9721 7.68092 11.0415 7.70892 11.0975 7.76492C11.1531 7.82092 11.1809 7.89034 11.1809 7.97317C11.1809 8.056 11.1531 8.12522 11.0975 8.18083C11.0419 8.23645 10.9725 8.26425 10.8893 8.26425H9.43092V9.72259C9.43092 9.80542 9.40292 9.87464 9.34692 9.93025C9.29092 9.98586 9.2217 10.0139 9.13925 10.0143C9.05681 10.0146 8.98759 9.98664 8.93159 9.93025C8.87558 9.87386 8.84759 9.80464 8.84759 9.72259V8.26425ZM1.13884 1.97125H8.84992L8.07409 1.04025C8.03636 1.00292 7.9932 0.972974 7.94459 0.950419C7.89597 0.927863 7.84542 0.916585 7.79292 0.916585H2.19525C2.14314 0.916585 2.09259 0.927863 2.04359 0.950419C1.99459 0.972974 1.95181 1.00292 1.91525 1.04025L1.13884 1.97125Z" fill="white" fill-opacity="0.7"/>
</svg>
