<svg width="13" height="12" viewBox="0 0 13 12" fill="none" xmlns="http://www.w3.org/2000/svg">
<path d="M2.79995 1.5001C2.79995 1.12879 2.94745 0.772699 3.21 0.510148C3.47255 0.247597 3.82865 0.100098 4.19995 0.100098H9.09995C9.47125 0.100098 9.82735 0.247597 10.0899 0.510148C10.3525 0.772699 10.5 1.12879 10.5 1.5001V6.4001H12.6V7.8001C12.6 8.35705 12.3787 8.8912 11.9849 9.28502C11.591 9.67885 11.0569 9.9001 10.5 9.9001H7.27995C7.54875 9.3751 7.69995 8.7801 7.69995 8.1501C7.69995 6.8481 7.05385 5.6966 6.06405 5.0001H8.04995C8.14278 5.0001 8.2318 4.96322 8.29744 4.89759C8.36308 4.83195 8.39995 4.74292 8.39995 4.6501C8.39995 4.55727 8.36308 4.46825 8.29744 4.40261C8.2318 4.33697 8.14278 4.3001 8.04995 4.3001H5.24995C5.19139 4.3002 5.13379 4.31499 5.08242 4.34311C5.03106 4.37124 4.98757 4.41181 4.95595 4.4611C4.59708 4.35392 4.22449 4.29968 3.84995 4.3001C3.49494 4.29976 3.1416 4.34852 2.79995 4.445V1.5001ZM10.5 9.2001C10.8713 9.2001 11.2273 9.0526 11.4899 8.79005C11.7525 8.5275 11.9 8.1714 11.9 7.8001V7.1001H10.5V9.2001ZM5.24995 2.2001C5.15713 2.2001 5.0681 2.23697 5.00246 2.30261C4.93683 2.36825 4.89995 2.45727 4.89995 2.5501C4.89995 2.64292 4.93683 2.73195 5.00246 2.79759C5.0681 2.86322 5.15713 2.9001 5.24995 2.9001H8.04995C8.14278 2.9001 8.2318 2.86322 8.29744 2.79759C8.36308 2.73195 8.39995 2.64292 8.39995 2.5501C8.39995 2.45727 8.36308 2.36825 8.29744 2.30261C8.2318 2.23697 8.14278 2.2001 8.04995 2.2001H5.24995ZM6.99995 8.1501C6.99995 8.98553 6.66808 9.78674 6.07734 10.3775C5.4866 10.9682 4.68538 11.3001 3.84995 11.3001C3.01452 11.3001 2.2133 10.9682 1.62256 10.3775C1.03183 9.78674 0.699951 8.98553 0.699951 8.1501C0.699951 7.31467 1.03183 6.51345 1.62256 5.92271C2.2133 5.33197 3.01452 5.0001 3.84995 5.0001C4.68538 5.0001 5.4866 5.33197 6.07734 5.92271C6.66808 6.51345 6.99995 7.31467 6.99995 8.1501ZM4.19995 6.7501C4.19995 6.65727 4.16308 6.56825 4.09744 6.50261C4.0318 6.43697 3.94278 6.4001 3.84995 6.4001C3.75713 6.4001 3.6681 6.43697 3.60246 6.50261C3.53683 6.56825 3.49995 6.65727 3.49995 6.7501V7.8001H2.44995C2.35713 7.8001 2.2681 7.83697 2.20246 7.90261C2.13683 7.96825 2.09995 8.05727 2.09995 8.1501C2.09995 8.24292 2.13683 8.33195 2.20246 8.39758C2.2681 8.46322 2.35713 8.5001 2.44995 8.5001H3.49995V9.5501C3.49995 9.64292 3.53683 9.73195 3.60246 9.79759C3.6681 9.86322 3.75713 9.9001 3.84995 9.9001C3.94278 9.9001 4.0318 9.86322 4.09744 9.79759C4.16308 9.73195 4.19995 9.64292 4.19995 9.5501V8.5001H5.24995C5.34278 8.5001 5.4318 8.46322 5.49744 8.39758C5.56308 8.33195 5.59995 8.24292 5.59995 8.1501C5.59995 8.05727 5.56308 7.96825 5.49744 7.90261C5.4318 7.83697 5.34278 7.8001 5.24995 7.8001H4.19995V6.7501Z" fill="#B9BDC8"/>
</svg>
