<svg width="112" height="80" viewBox="0 0 112 80" fill="none" xmlns="http://www.w3.org/2000/svg">
<path d="M25.3046 0.017334C30.2461 3.89959 35.1408 7.8853 40.0725 11.7873C40.5405 12.1642 40.6316 12.3514 40.6267 12.9746C40.6193 25.5624 40.6292 38.1501 40.6218 50.7379C39.6882 50.26 38.8186 49.6762 37.9318 49.117C30.2387 44.2888 22.5629 39.4237 14.86 34.6078C14.8206 25.8481 14.8477 17.0859 14.8452 8.32624C17.2371 6.3999 19.6586 4.50804 22.0431 2.56937C23.127 1.71705 24.169 0.795756 25.3046 0.017334Z" fill="#060DBC"/>
<path d="M53.2958 0C58.3728 4.06701 63.467 8.1217 68.5391 12.1961C68.5169 25.0327 68.544 37.8668 68.5366 50.7009C67.603 50.2131 66.7236 49.6416 65.8392 49.0726C58.1782 44.2937 50.5639 39.4039 42.8832 34.6619C42.8117 28.0109 42.8758 21.3549 42.8512 14.7038C42.8709 12.5434 42.8043 10.3806 42.893 8.22023C46.4156 5.55487 49.7757 2.67028 53.2958 0Z" fill="#0F56FC"/>
<path d="M81.2376 0.00732422C86.386 4.04231 91.5049 8.18075 96.5991 12.2921C96.572 23.7689 96.5942 35.2506 96.5843 46.7274C96.5597 48.134 96.7149 49.4593 96.3873 50.8437C95.5029 49.9593 94.4117 49.4913 93.3795 48.8188C85.8244 44.0473 78.3407 39.3299 70.7856 34.5683C70.8299 25.8184 70.7757 17.0661 70.8127 8.31624C74.3156 5.58437 77.747 2.75151 81.2376 0.00732422Z" fill="#00E3FD"/>
<path d="M0.0132818 59.0222C3.68615 59.0001 7.35902 59.0272 11.0319 59.0099C11.8349 59.0025 12.638 59.0419 13.4386 59.0986C13.4337 59.7883 13.4287 60.4756 13.4189 61.1654C8.95035 61.1875 4.48428 61.1555 0.0182095 61.1801C0.00589274 60.4608 0.00342833 59.7415 0.0132818 59.0222Z" fill="#00E3FD"/>
<path d="M54.658 59.1212C55.3182 59.1138 55.9808 59.1138 56.641 59.1138C58.555 62.4221 60.4937 65.7156 62.3708 69.0436C61.2401 69.0584 60.1094 69.0534 58.9787 69.0411C57.8752 67.1172 56.7642 65.2007 55.6458 63.2867C54.5866 65.2278 53.4313 67.1148 52.3498 69.0436C51.2241 69.0534 50.1008 69.0584 48.975 69.0386C50.8299 65.7106 52.7883 62.4393 54.658 59.1212Z" fill="#00E3FD"/>
<path d="M73.4509 59.0912C75.7172 60.552 77.9121 62.1286 80.1858 63.5819C82.3806 62.0596 84.6198 60.6037 86.8097 59.0715C86.8984 62.3971 86.8467 65.7275 86.8393 69.0531C85.7259 69.0481 84.6124 69.0506 83.499 69.0531C83.467 67.4716 83.5384 65.895 83.4029 64.3136C82.3757 65.1265 81.2499 65.7842 80.1932 66.5552C77.9047 65.0895 75.6729 63.5253 73.4214 62.0005C73.4238 61.0324 73.3943 60.0593 73.4509 59.0912Z" fill="#00E3FD"/>
<path d="M97.8826 59.0866C98.9862 59.0028 100.087 59.0028 101.191 59.0127C104.534 59.0176 107.876 59.0127 111.219 59.0152C111.239 59.7345 111.254 60.4538 111.261 61.1731C106.807 61.1632 102.351 61.1829 97.8973 61.1632C97.8924 60.471 97.8875 59.7788 97.8826 59.0866Z" fill="#00E3FD"/>
<path d="M24.4741 59.1262C25.6269 58.9094 26.8564 59.0449 28.0288 59.0129C30.0118 59.0474 32.2192 58.8554 34.1431 59.3234C35.3378 59.624 36.6241 60.3238 37.1636 61.4865C37.4467 62.2352 37.4414 63.2128 36.9195 63.8605C36.2322 64.767 35.2789 65.1882 34.2222 65.5158C35.3972 66.7302 36.6359 67.886 37.8921 69.0363C36.4733 69.0708 35.0521 69.0589 33.6333 69.0441C32.6258 68.0465 31.6154 67.0511 30.6128 66.0461C29.7015 66.0461 28.7873 66.0431 27.8736 66.048C27.8612 67.0481 27.8588 68.0484 27.8687 69.051C26.7332 69.0559 25.5999 69.0564 24.4644 69.0539C24.4521 67.076 24.4694 65.0977 24.4546 63.1223C25.5804 62.4744 26.692 61.8069 27.8374 61.1984C26.7166 61.1516 25.593 61.1588 24.4722 61.1662C24.4623 60.4888 24.4249 59.8036 24.4741 59.1262ZM27.8667 61.1584C27.8618 62.0698 27.8637 62.9818 27.8736 63.8957C29.2358 63.8858 30.6032 63.9327 31.9654 63.8859C32.6501 63.8687 33.2066 63.5798 33.815 63.3039C33.8544 62.8606 33.9781 62.3114 33.7935 61.8928C33.2737 61.373 32.4409 61.1883 31.729 61.1711C30.4433 61.1415 29.155 61.1806 27.8667 61.1584Z" fill="#00E3FD"/>
<path d="M0.00339427 62.8675C3.50383 62.8576 7.00426 62.8675 10.5047 62.8625C10.5047 63.5843 10.4998 64.3061 10.4776 65.0278C8.12016 64.9983 5.76026 65.0155 3.40036 65.018C3.32154 66.3654 3.35602 67.703 3.35849 69.0505C2.24505 69.0554 1.13161 69.053 0.0157099 69.048C-0.0138504 66.9862 0.00832098 64.9268 0.00339427 62.8675Z" fill="#00E3FD"/>
<path d="M97.8949 62.8604C101.388 62.8702 104.881 62.8579 108.374 62.8677C108.379 63.5501 108.389 64.23 108.413 64.9123C106.056 65.1242 103.662 64.969 101.294 65.0109C101.294 65.6341 101.292 66.2598 101.292 66.883C101.829 66.9052 102.371 66.9372 102.91 66.9298C105.672 66.8461 108.438 66.9347 111.199 66.8781C111.234 67.5999 111.254 68.3216 111.268 69.0434C106.81 69.0582 102.351 69.0508 97.8924 69.0458C97.89 66.984 97.8875 64.9222 97.8949 62.8604Z" fill="#00E3FD"/>
<path d="M73.4288 63.3408C74.5644 64.1291 75.7296 64.8755 76.8603 65.6736C76.8553 66.792 76.8529 67.9128 76.8726 69.0312C75.7222 69.0534 74.5693 69.0509 73.4189 69.0484C73.4288 67.1467 73.414 65.245 73.4288 63.3408Z" fill="#00E3FD"/>
<path d="M0.463989 77.423C0.715252 77.4082 0.964051 77.4008 1.21285 77.4033C1.52816 77.8516 1.81637 78.3271 2.10951 78.7902C2.35831 78.3344 2.60711 77.8787 2.85591 77.4205C3.12934 77.4156 3.40031 77.4107 3.67375 77.4082C3.16876 78.3418 2.82881 79.3617 1.942 79.9997C1.44687 79.1449 0.900004 78.3098 0.463989 77.423Z" fill="#00E3FD"/>
<path d="M24.4941 77.3789C24.765 77.507 25.0261 77.6548 25.2897 77.7977C25.2084 78.3643 25.4351 79.2043 24.8389 79.5171C24.1393 79.9753 23.0579 79.9728 22.3682 79.4949C21.8484 79.187 21.9445 78.3938 22.0184 77.8888C22.2327 77.6819 22.4766 77.507 22.7106 77.3223C22.7894 77.9504 22.8707 78.5786 22.9594 79.2067C23.4447 79.1944 23.9275 79.1575 24.4103 79.1254C24.4325 78.5441 24.4325 77.9578 24.4941 77.3789Z" fill="#00E3FD"/>
<path d="M29.8346 77.3518C30.3396 78.1499 30.7904 78.9875 31.2313 79.825C30.9825 79.8349 30.7337 79.8447 30.4825 79.8521C30.209 79.3865 29.8962 78.9505 29.6129 78.4899C29.3419 78.9431 29.071 79.3989 28.8074 79.8546C28.5438 79.8447 28.2827 79.8373 28.0191 79.8275C28.4108 79.1205 28.7655 78.3766 29.2237 77.7065C29.3641 77.4528 29.5858 77.4356 29.8346 77.3518Z" fill="#00E3FD"/>
<path d="M43.5113 77.4378C44.5558 77.3245 45.6322 77.4181 46.6841 77.4058C46.6866 77.5733 46.6866 77.7408 46.689 77.9108C45.5436 77.9083 44.403 77.9354 43.2576 77.8788C43.3389 77.7285 43.4226 77.5807 43.5113 77.4378Z" fill="#00E3FD"/>
<path d="M56.0597 77.3983C56.072 77.5585 56.0868 77.721 56.0991 77.8836C55.264 77.9378 54.4955 77.8541 53.7466 78.3073C54.6014 78.3787 55.4562 78.3615 56.3134 78.3861C56.1484 78.7926 56.1582 79.3789 55.7148 79.5833C54.9635 80.0218 53.8427 79.8149 53.0002 79.8494C53.0248 79.6868 53.047 79.5242 53.0716 79.3592C53.9461 79.3296 54.759 79.3715 55.5695 78.9576C54.6778 78.8665 53.7885 78.8665 52.8943 78.8591C52.9485 78.5536 53.0002 78.2507 53.0643 77.9452C53.9979 77.1889 54.9438 77.4427 56.0597 77.3983Z" fill="#00E3FD"/>
<path d="M62.2081 77.3961C62.2179 77.5686 62.2278 77.741 62.2376 77.911C61.4296 77.943 60.4862 77.778 59.7915 78.2263C59.6388 78.6672 59.6462 78.9752 60.1043 79.1821C60.7547 79.4186 61.5429 79.3126 62.2327 79.3249L62.2105 79.8521C61.2744 79.8152 59.9689 80.0393 59.2471 79.3249C58.7569 78.9776 58.8776 78.0933 59.3727 77.7927C60.1068 77.2336 61.336 77.4208 62.2081 77.3961Z" fill="#00E3FD"/>
<path d="M66.7801 77.354C67.2974 78.1497 67.7507 78.9971 68.1916 79.8395C67.9281 79.8445 67.667 79.8494 67.4034 79.8519C67.1472 79.3912 66.8861 78.933 66.6249 78.4724C66.3343 78.9281 66.0436 79.3838 65.7603 79.842C65.5017 79.8395 65.2455 79.8346 64.9868 79.8297C65.3785 79.1227 65.7406 78.3911 66.1865 77.7186C66.322 77.4649 66.5313 77.4353 66.7801 77.354Z" fill="#00E3FD"/>
<path d="M92.7711 77.4701C93.7268 77.3272 94.7343 77.4282 95.7 77.4085C95.6803 77.5711 95.6606 77.7312 95.6409 77.8914C95.2935 77.9012 94.9462 77.9111 94.5964 77.9209C94.5964 78.5589 94.5964 79.1969 94.5989 79.8349C94.3131 79.8399 94.0274 79.8448 93.7441 79.8497C93.7293 79.2043 93.7244 78.5589 93.7121 77.9135C93.3081 77.9135 92.9041 77.9086 92.4976 77.9012C92.5863 77.7559 92.675 77.6105 92.7711 77.4701Z" fill="#00E3FD"/>
<path d="M7.25063 77.4702C7.26048 78.2634 7.25556 79.0542 7.24817 79.8474C6.9772 79.8474 6.70869 79.8449 6.43772 79.8449C6.43033 79.1699 6.41555 78.4876 6.45004 77.8175C6.71608 77.6944 6.98212 77.5835 7.25063 77.4702Z" fill="#00E3FD"/>
<path d="M16.232 77.4332C17.1951 77.3814 18.1632 77.411 19.1289 77.411L19.1042 77.9086C18.752 77.9111 18.3997 77.9135 18.045 77.916C18.045 78.554 18.0425 79.1945 18.0425 79.8325C17.779 79.8423 17.5129 79.8522 17.2493 79.8645C17.2395 79.2216 17.2321 78.5786 17.2296 77.9357C16.8084 77.9234 16.3847 77.9037 15.961 77.884C16.0497 77.7337 16.1408 77.5834 16.232 77.4332Z" fill="#00E3FD"/>
<path d="M50.2362 77.4407C50.2509 78.2363 50.2485 79.0345 50.2583 79.8301C49.9676 79.8375 49.677 79.8425 49.3863 79.8474C49.3764 79.2044 49.374 78.559 49.3814 77.9161C49.6622 77.7511 49.9504 77.5959 50.2362 77.4407Z" fill="#00E3FD"/>
<path d="M71.7612 77.4529C71.7759 78.0786 71.7833 78.7018 71.7932 79.3275C72.6086 79.325 73.4264 79.33 74.2418 79.3349C74.2442 79.5049 74.2467 79.6748 74.2467 79.8448C73.1554 79.8547 72.0642 79.8596 70.9729 79.8522C70.9581 79.1822 70.9384 78.517 70.9852 77.847C71.2414 77.7091 71.5 77.581 71.7612 77.4529Z" fill="#00E3FD"/>
<path d="M83.8168 77.438L83.5162 77.8592C82.7354 78.0193 82.0456 77.8025 81.3436 78.2977C82.191 78.3691 83.0384 78.3691 83.8882 78.3864C83.6936 78.8741 83.7059 79.4358 83.1517 79.6525C82.3929 79.9826 81.4002 79.8225 80.5848 79.8521C80.6021 79.6895 80.6169 79.5244 80.6341 79.3619C81.2869 79.3323 81.9225 79.3298 82.5654 79.182C82.7452 79.1155 82.9226 79.0367 83.095 78.9505C82.1811 78.8593 81.2746 78.8741 80.3582 78.8421C80.538 78.4676 80.7203 78.0981 80.9051 77.7286C81.8633 77.2581 82.7896 77.4109 83.8168 77.438Z" fill="#00E3FD"/>
<path d="M87.9207 77.4304L88.3543 77.4329C88.911 78.1423 89.3027 79.0316 89.687 79.8445C89.4431 79.8445 89.1992 79.8445 88.9553 79.8445C88.6868 79.3814 88.4134 78.9158 88.14 78.4552C87.8665 78.9232 87.5931 79.3913 87.3172 79.8593C87.0438 79.8445 86.7728 79.8297 86.5018 79.8149C86.9994 79.0341 87.396 78.1891 87.9207 77.4304Z" fill="#00E3FD"/>
<path d="M99.326 77.4136C99.3482 78.224 99.3482 79.0369 99.3384 79.8474C99.0649 79.8474 98.7939 79.8498 98.523 79.8523C98.523 79.1749 98.5131 78.5024 98.5747 77.8274C98.8235 77.6821 99.0748 77.5491 99.326 77.4136Z" fill="#00E3FD"/>
<path d="M105.29 78.9554C104.891 79.99 103.253 80.0935 102.464 79.4555C102.06 79.1254 102.095 78.618 102.009 78.1499C102.28 78.0933 102.551 78.0366 102.822 77.9799C102.866 78.3445 102.632 78.9209 103.026 79.1156C103.632 79.6402 104.851 79.251 104.58 78.3248C104.135 77.8223 103.556 77.9578 102.937 77.805C103.659 76.8443 105.662 77.6794 105.29 78.9554Z" fill="#00E3FD"/>
<path d="M107.982 77.4431C108.689 77.9087 109.519 78.325 110.106 78.9408L110.251 79.6158C109.763 79.3424 109.285 79.0468 108.81 78.7487C108.793 79.1182 108.778 79.4877 108.761 79.8572C108.495 79.8498 108.231 79.8449 107.965 79.8375C107.965 79.0394 107.965 78.2412 107.982 77.4431Z" fill="#00E3FD"/>
<path d="M110.451 77.4106C110.704 77.5461 110.956 77.6865 111.207 77.8294C111.266 78.5093 111.256 79.1793 111.259 79.8592C110.98 79.8494 110.702 79.8395 110.426 79.8272C110.433 79.0217 110.433 78.2162 110.451 77.4106Z" fill="#00E3FD"/>
<path d="M9.94865 77.4261C10.8773 77.426 12.5047 77.1036 13.1156 77.9974C13.2191 78.6181 12.7883 78.7017 12.4213 79.0687C12.702 79.3124 12.9853 79.5564 13.266 79.8001C12.9089 79.8248 12.5518 79.8478 12.1947 79.8675C11.9804 79.6261 11.7665 79.3838 11.5522 79.14C11.3576 79.1227 11.1603 79.106 10.9633 79.0863C10.6529 79.7612 10.7608 79.8523 9.91837 79.9115C9.91098 78.9977 10.3228 78.2955 9.94865 77.4261ZM10.6674 77.9085C10.7314 78.1376 10.8102 78.3646 10.894 78.5863C11.3103 78.5986 11.7267 78.5907 12.143 78.5882C12.1824 78.3789 12.2198 78.1716 12.2592 77.9622C11.732 77.9351 11.1921 77.8913 10.6674 77.9085Z" fill="#00E3FD"/>
<path d="M34.0076 77.7953C34.281 77.6918 34.552 77.5859 34.8254 77.4824C34.8279 78.0983 34.8254 78.7141 34.8254 79.3299C35.6506 79.325 36.4783 79.3201 37.3035 79.3324C37.2912 79.5048 37.2764 79.6773 37.2641 79.8522C36.1753 79.8448 35.0865 79.8596 33.9952 79.8546C33.9977 79.1698 34.0002 78.4825 34.0076 77.7953Z" fill="#00E3FD"/>
<path d="M77.8258 77.4998C77.8283 78.2831 77.816 79.0665 77.811 79.8473C77.5253 79.8473 77.2395 79.8449 76.9538 79.8424C76.9464 79.1822 76.9464 78.5221 76.9267 77.8619C77.2297 77.7486 77.5302 77.6279 77.8258 77.4998Z" fill="#00E3FD"/>
<path d="M43.4128 78.3742C44.2503 78.2954 45.1026 78.3348 45.9426 78.3225L45.9722 78.8546C45.3859 78.8595 44.8021 78.8644 44.2158 78.8694C44.206 79.1995 44.1961 79.5296 44.1862 79.8621C43.9202 79.8572 43.6566 79.8498 43.393 79.8449C43.3906 79.3547 43.3758 78.862 43.4128 78.3742Z" fill="#00E3FD"/>
</svg>
