<svg width="20" height="24" viewBox="0 0 20 24" fill="none" xmlns="http://www.w3.org/2000/svg">
<path d="M19.1464 8.1816C19.0072 8.2896 16.5496 9.6744 16.5496 12.7536C16.5496 16.3152 19.6768 17.5752 19.7704 17.6064C19.756 17.6832 19.2736 19.332 18.1216 21.012C17.0944 22.4904 16.0216 23.9664 14.3896 23.9664C12.7576 23.9664 12.3376 23.0184 10.4536 23.0184C8.6176 23.0184 7.9648 23.9976 6.472 23.9976C4.9792 23.9976 3.93759 22.6296 2.73999 20.9496C1.35279 18.9768 0.231995 15.912 0.231995 13.0032C0.231995 8.3376 3.26559 5.8632 6.2512 5.8632C7.8376 5.8632 9.16 6.9048 10.156 6.9048C11.104 6.9048 12.5824 5.8008 14.3872 5.8008C15.0712 5.8008 17.5288 5.8632 19.1464 8.1816ZM13.5304 3.8256C14.2768 2.94 14.8048 1.7112 14.8048 0.4824C14.8048 0.312 14.7904 0.1392 14.7592 0C13.5448 0.0456 12.1 0.8088 11.2288 1.8192C10.5448 2.5968 9.9064 3.8256 9.9064 5.0712C9.9064 5.2584 9.9376 5.4456 9.952 5.5056C10.0288 5.52 10.1536 5.5368 10.2784 5.5368C11.368 5.5368 12.7384 4.8072 13.5304 3.8256Z" fill="white"/>
</svg>
