<svg width="18" height="18" viewBox="0 0 18 18" fill="none" xmlns="http://www.w3.org/2000/svg">
<path d="M17.25 13.5833L17.25 9C17.25 7.91659 17.0366 6.8438 16.622 5.84286C16.2074 4.84193 15.5997 3.93245 14.8336 3.16637C14.0675 2.40029 13.1581 1.7926 12.1571 1.37799C11.1562 0.963393 10.0834 0.75 9 0.75C7.91659 0.75 6.8438 0.963393 5.84286 1.37799C4.84193 1.7926 3.93245 2.40029 3.16637 3.16637C2.40029 3.93245 1.7926 4.84193 1.37799 5.84286C0.963392 6.8438 0.75 7.91659 0.75 9L0.75 13.5833" stroke="white" stroke-linecap="round" stroke-linejoin="round"/>
<path d="M12.6664 11.7115C12.6664 11.2431 12.6664 11.0084 12.7205 10.8223C12.8443 10.3933 13.1697 10.067 13.573 9.96617C14.739 9.67467 14.9755 10.7582 15.8124 11.0955L15.8757 11.1212C16.785 11.5034 17.2479 12.476 17.2461 13.4623V13.7896C17.2433 14.6604 16.7786 15.4717 16.0058 15.8723C15.1451 16.3168 14.8582 17.4783 13.6088 17.2106C13.2082 17.1244 12.8782 16.8173 12.7379 16.4012C12.6664 16.1894 12.6664 15.9117 12.6664 15.3598V11.7115ZM5.33309 15.4552C5.33309 15.9236 5.33309 16.1573 5.27901 16.3443C5.15526 16.7733 4.82984 17.0997 4.42651 17.2005C3.26051 17.492 3.02401 16.4076 2.18709 16.0712L2.13026 16.0483C1.21542 15.6651 0.75159 14.6916 0.753423 13.7043V13.3707C0.756173 12.5035 1.22001 11.695 1.99367 11.2944C2.85442 10.8498 3.14134 9.68842 4.39076 9.95608C4.79134 10.0423 5.12134 10.3493 5.26159 10.7655C5.33309 10.9773 5.33309 11.2541 5.33309 11.8068L5.33309 15.4552Z" stroke="white" stroke-linecap="round" stroke-linejoin="round"/>
</svg>
