<svg width="21" height="20" viewBox="0 0 21 20" fill="none" xmlns="http://www.w3.org/2000/svg">
<path d="M8 3.75005H7.16667C5.2025 3.75005 4.22 3.75005 3.61 4.36005C3 4.97005 3 5.95255 3 7.91672V12.0834C3 14.0476 3 15.0292 3.61 15.64C4.22 16.2509 5.2025 16.25 7.16667 16.25H8M8 5.39672C8 3.48588 8 2.53005 8.58917 2.00755C9.17833 1.48505 10.0792 1.64172 11.8808 1.95588L13.8225 2.29505C15.8175 2.64255 16.815 2.81672 17.4075 3.54838C18 4.28088 18 5.33922 18 7.45672V12.5442C18 14.6609 18 15.7192 17.4083 16.4517C16.815 17.1834 15.8167 17.3575 13.8217 17.7059L11.8817 18.0442C10.08 18.3584 9.17917 18.515 8.59 17.9925C8.00083 17.47 8 16.5142 8 14.6034V5.39672Z" stroke="#FD5353" stroke-width="1.25"/>
<path d="M10.5 9.16675V10.8334" stroke="#FD5353" stroke-width="1.25" stroke-linecap="round"/>
</svg>
