<svg width="309" height="193" viewBox="0 0 309 193" fill="none" xmlns="http://www.w3.org/2000/svg">
<path opacity="0.1" d="M39.3673 1C57.9541 15.6195 76.3648 30.6287 94.9146 45.3224C96.675 46.7417 97.0178 47.4467 96.9993 49.7936C96.9715 97.1957 97.0086 144.598 96.9808 192C93.4691 190.2 90.1983 188.002 86.8627 185.896C57.9263 167.715 29.0547 149.394 0.0812016 131.258C-0.0670478 98.2718 0.0348759 65.2758 0.0256103 32.2891C9.0225 25.035 18.1306 17.9108 27.0997 10.6103C31.1765 7.40068 35.0959 3.93133 39.3673 1Z" fill="#060DBC"/>
<path opacity="0.1" d="M145.453 0C164.62 15.4014 183.852 30.7562 203 46.1856C202.916 94.7966 203.019 143.398 202.991 192C199.466 190.153 196.146 187.989 192.807 185.834C163.885 167.736 135.139 149.219 106.142 131.262C105.872 106.075 106.114 80.8691 106.021 55.6821C106.096 47.5009 105.845 39.3105 106.179 31.1293C119.478 21.0359 132.163 10.1121 145.453 0Z" fill="#0F56FC"/>
<path opacity="0.1" d="M250.679 1C270.224 16.2394 289.657 31.8696 308.997 47.3975C308.894 90.7433 308.978 134.108 308.941 177.454C308.847 182.766 309.436 187.771 308.192 193C304.835 189.66 300.692 187.892 296.774 185.352C268.092 167.331 239.682 149.515 211 131.531C211.168 98.484 210.963 65.428 211.103 32.3813C224.401 22.0635 237.428 11.3643 250.679 1Z" fill="#00E3FD"/>
<path d="M102.647 19.8535C110.149 25.7471 117.58 31.7977 125.066 37.7212C125.777 38.2934 125.915 38.5776 125.908 39.5237C125.896 58.633 125.911 77.7423 125.9 96.8515C124.483 96.1261 123.163 95.2398 121.817 94.3909C110.138 87.0613 98.4852 79.6756 86.7916 72.3647C86.7317 59.0668 86.7729 45.7651 86.7691 32.4671C90.4003 29.5428 94.0763 26.6708 97.6962 23.7277C99.3416 22.4338 100.923 21.0352 102.647 19.8535Z" fill="#060DBC"/>
<path d="M145.14 19.8274C152.848 26.0014 160.581 32.1568 168.281 38.3421C168.247 57.829 168.288 77.3123 168.277 96.7955C166.86 96.0551 165.525 95.1875 164.182 94.3236C152.552 87.0688 140.993 79.6458 129.333 72.4471C129.225 62.3502 129.322 52.2458 129.284 42.149C129.314 38.8694 129.213 35.586 129.348 32.3064C134.696 28.2602 139.796 23.8811 145.14 19.8274Z" fill="#0F56FC"/>
<path d="M187.558 19.8386C195.374 25.9641 203.145 32.2466 210.878 38.4879C210.837 55.9106 210.871 73.3408 210.856 90.7636C210.819 92.8989 211.054 94.9108 210.557 97.0124C209.214 95.6699 207.558 94.9594 205.991 93.9385C194.521 86.6949 183.161 79.5336 171.691 72.305C171.759 59.022 171.676 45.7352 171.732 32.4522C177.05 28.305 182.259 24.0045 187.558 19.8386Z" fill="#00E3FD"/>
<path d="M64.253 115.407C69.8287 115.374 75.4044 115.415 80.9802 115.389C82.1993 115.378 83.4184 115.437 84.6337 115.523C84.6263 116.571 84.6188 117.614 84.6038 118.661C77.8202 118.695 71.0403 118.646 64.2605 118.683C64.2418 117.591 64.238 116.499 64.253 115.407Z" fill="#00E3FD"/>
<path d="M147.208 115.557C148.21 115.546 149.216 115.546 150.219 115.546C153.124 120.568 156.067 125.568 158.917 130.62C157.2 130.642 155.484 130.635 153.768 130.616C152.092 127.696 150.406 124.786 148.708 121.881C147.1 124.827 145.346 127.692 143.704 130.62C141.995 130.635 140.29 130.642 138.581 130.612C141.397 125.56 144.37 120.594 147.208 115.557Z" fill="#00E3FD"/>
<path d="M175.737 115.512C179.178 117.73 182.51 120.123 185.962 122.329C189.293 120.018 192.693 117.808 196.017 115.482C196.152 120.531 196.073 125.587 196.062 130.635C194.372 130.627 192.682 130.631 190.991 130.635C190.943 128.234 191.051 125.841 190.845 123.44C189.286 124.674 187.577 125.673 185.973 126.843C182.499 124.618 179.111 122.243 175.693 119.929C175.696 118.459 175.651 116.982 175.737 115.512Z" fill="#00E3FD"/>
<path d="M212.827 115.505C214.502 115.377 216.174 115.377 217.849 115.392C222.924 115.4 227.998 115.392 233.073 115.396C233.103 116.488 233.125 117.58 233.136 118.672C226.375 118.657 219.61 118.687 212.849 118.657C212.842 117.606 212.834 116.555 212.827 115.505Z" fill="#00E3FD"/>
<path d="M101.387 115.565C103.137 115.235 105.003 115.441 106.784 115.393C109.794 115.445 113.144 115.154 116.065 115.864C117.878 116.321 119.831 117.382 120.65 119.148C121.08 120.284 121.072 121.769 120.28 122.752C119.236 124.128 117.789 124.768 116.185 125.266C117.969 127.109 119.849 128.863 121.756 130.609C119.602 130.662 117.445 130.643 115.291 130.62C113.762 129.106 112.228 127.595 110.706 126.069C109.323 126.069 107.935 126.066 106.548 126.073C106.529 127.591 106.525 129.11 106.54 130.632C104.817 130.639 103.096 130.639 101.372 130.635C101.354 127.632 101.379 124.629 101.357 121.63C103.066 120.646 104.753 119.634 106.492 118.71C104.79 118.639 103.085 118.65 101.383 118.661C101.368 117.633 101.312 116.593 101.387 115.565ZM106.536 118.649C106.529 120.033 106.532 121.417 106.547 122.805C108.615 122.79 110.691 122.86 112.759 122.789C113.799 122.763 114.644 122.326 115.568 121.907C115.628 121.234 115.814 120.399 115.534 119.764C114.744 118.975 113.48 118.694 112.4 118.668C110.448 118.623 108.492 118.683 106.536 118.649Z" fill="#00E3FD"/>
<path d="M64.2381 121.245C69.552 121.23 74.866 121.245 80.1799 121.237C80.1799 122.333 80.1724 123.429 80.1388 124.524C76.56 124.48 72.9775 124.506 69.3949 124.509C69.2753 126.555 69.3276 128.586 69.3314 130.631C67.6411 130.639 65.9508 130.635 64.2568 130.627C64.2119 127.497 64.2455 124.371 64.2381 121.245Z" fill="#00E3FD"/>
<path d="M212.845 121.234C218.148 121.249 223.451 121.23 228.754 121.245C228.761 122.281 228.776 123.313 228.813 124.349C225.235 124.67 221.6 124.435 218.006 124.498C218.006 125.444 218.002 126.394 218.002 127.34C218.817 127.374 219.64 127.423 220.459 127.411C224.651 127.284 228.851 127.419 233.043 127.333C233.095 128.429 233.125 129.524 233.148 130.62C226.379 130.642 219.61 130.631 212.842 130.624C212.838 127.494 212.834 124.364 212.845 121.234Z" fill="#00E3FD"/>
<path d="M175.704 121.963C177.428 123.16 179.197 124.293 180.913 125.504C180.906 127.202 180.902 128.904 180.932 130.601C179.185 130.635 177.435 130.631 175.689 130.628C175.704 127.741 175.681 124.854 175.704 121.963Z" fill="#00E3FD"/>
<path d="M64.9374 137.362C65.3188 137.34 65.6965 137.329 66.0742 137.332C66.5529 138.013 66.9904 138.735 67.4354 139.438C67.8131 138.746 68.1908 138.054 68.5685 137.359C68.9836 137.351 69.395 137.344 69.8101 137.34C69.0434 138.757 68.5274 140.305 67.1811 141.274C66.4295 139.976 65.5993 138.709 64.9374 137.362Z" fill="#00E3FD"/>
<path d="M101.417 137.295C101.828 137.49 102.225 137.714 102.625 137.931C102.501 138.791 102.845 140.066 101.94 140.541C100.878 141.237 99.2368 141.233 98.1897 140.508C97.4006 140.04 97.5465 138.836 97.6587 138.069C97.984 137.755 98.3542 137.49 98.7095 137.209C98.8292 138.163 98.9526 139.116 99.0872 140.07C99.8239 140.051 100.557 139.995 101.29 139.947C101.323 139.064 101.323 138.174 101.417 137.295Z" fill="#00E3FD"/>
<path d="M109.524 137.254C110.291 138.466 110.975 139.737 111.645 141.009C111.267 141.024 110.889 141.039 110.508 141.05C110.093 140.343 109.618 139.681 109.188 138.982C108.776 139.67 108.365 140.362 107.965 141.054C107.565 141.039 107.168 141.027 106.768 141.012C107.363 139.939 107.901 138.81 108.597 137.793C108.81 137.407 109.147 137.381 109.524 137.254Z" fill="#00E3FD"/>
<path d="M130.287 137.385C131.872 137.213 133.506 137.355 135.103 137.336C135.107 137.591 135.107 137.845 135.111 138.103C133.372 138.099 131.64 138.14 129.901 138.054C130.025 137.826 130.152 137.602 130.287 137.385Z" fill="#00E3FD"/>
<path d="M149.336 137.325C149.355 137.568 149.377 137.815 149.396 138.062C148.128 138.144 146.961 138.017 145.825 138.705C147.122 138.813 148.42 138.787 149.721 138.825C149.471 139.442 149.486 140.332 148.813 140.642C147.672 141.308 145.97 140.994 144.692 141.046C144.729 140.799 144.763 140.552 144.8 140.302C146.128 140.257 147.362 140.32 148.592 139.692C147.238 139.554 145.888 139.554 144.531 139.543C144.613 139.079 144.692 138.619 144.789 138.155C146.206 137.007 147.642 137.392 149.336 137.325Z" fill="#00E3FD"/>
<path d="M158.67 137.321C158.685 137.583 158.7 137.845 158.715 138.103C157.488 138.152 156.056 137.901 155.002 138.582C154.77 139.251 154.781 139.718 155.476 140.033C156.464 140.392 157.66 140.231 158.707 140.249L158.674 141.05C157.253 140.994 155.271 141.334 154.175 140.249C153.431 139.722 153.614 138.38 154.366 137.923C155.48 137.075 157.346 137.359 158.67 137.321Z" fill="#00E3FD"/>
<path d="M165.611 137.258C166.396 138.466 167.084 139.752 167.754 141.031C167.353 141.039 166.957 141.046 166.557 141.05C166.168 140.35 165.772 139.655 165.375 138.956C164.934 139.647 164.493 140.339 164.063 141.035C163.67 141.031 163.281 141.024 162.888 141.016C163.483 139.943 164.033 138.832 164.709 137.811C164.915 137.426 165.233 137.381 165.611 137.258Z" fill="#00E3FD"/>
<path d="M205.067 137.433C206.518 137.216 208.048 137.37 209.513 137.34C209.484 137.587 209.454 137.83 209.424 138.073C208.896 138.088 208.369 138.103 207.838 138.118C207.838 139.086 207.838 140.055 207.842 141.023C207.408 141.031 206.974 141.038 206.544 141.046C206.522 140.066 206.514 139.086 206.496 138.107C205.882 138.107 205.269 138.099 204.652 138.088C204.787 137.867 204.921 137.647 205.067 137.433Z" fill="#00E3FD"/>
<path d="M75.2399 137.434C75.2549 138.638 75.2474 139.838 75.2362 141.042C74.8248 141.042 74.4172 141.039 74.0058 141.039C73.9946 140.014 73.9722 138.978 74.0245 137.961C74.4284 137.774 74.8323 137.606 75.2399 137.434Z" fill="#00E3FD"/>
<path d="M88.8745 137.377C90.3367 137.299 91.8063 137.344 93.2722 137.344L93.2348 138.099C92.7001 138.103 92.1653 138.107 91.6268 138.11C91.6268 139.079 91.6231 140.051 91.6231 141.02C91.223 141.035 90.8191 141.05 90.4189 141.068C90.404 140.092 90.3928 139.116 90.389 138.14C89.7496 138.122 89.1063 138.092 88.4631 138.062C88.5978 137.834 88.7361 137.606 88.8745 137.377Z" fill="#00E3FD"/>
<path d="M140.496 137.389C140.518 138.597 140.514 139.808 140.529 141.016C140.088 141.027 139.647 141.035 139.206 141.042C139.191 140.066 139.187 139.086 139.198 138.11C139.624 137.86 140.062 137.624 140.496 137.389Z" fill="#00E3FD"/>
<path d="M173.172 137.407C173.195 138.357 173.206 139.303 173.221 140.253C174.459 140.249 175.7 140.257 176.938 140.264C176.942 140.522 176.945 140.78 176.945 141.038C175.289 141.053 173.632 141.061 171.976 141.05C171.953 140.032 171.923 139.023 171.994 138.006C172.383 137.796 172.776 137.602 173.172 137.407Z" fill="#00E3FD"/>
<path d="M191.474 137.385L191.017 138.024C189.832 138.267 188.785 137.938 187.719 138.69C189.006 138.799 190.292 138.798 191.582 138.825C191.287 139.565 191.305 140.418 190.464 140.747C189.312 141.248 187.805 141.005 186.567 141.05C186.593 140.803 186.616 140.552 186.642 140.306C187.633 140.261 188.598 140.257 189.574 140.033C189.847 139.932 190.116 139.812 190.378 139.681C188.991 139.543 187.614 139.565 186.223 139.516C186.496 138.948 186.773 138.387 187.053 137.826C188.508 137.112 189.914 137.344 191.474 137.385Z" fill="#00E3FD"/>
<path d="M197.704 137.374L198.362 137.378C199.207 138.455 199.802 139.805 200.385 141.039C200.015 141.039 199.645 141.039 199.274 141.039C198.867 140.336 198.452 139.629 198.037 138.929C197.622 139.64 197.206 140.35 196.788 141.061C196.373 141.039 195.961 141.016 195.55 140.994C196.305 139.808 196.907 138.526 197.704 137.374Z" fill="#00E3FD"/>
<path d="M215.018 137.348C215.052 138.578 215.052 139.812 215.037 141.042C214.622 141.042 214.21 141.046 213.799 141.05C213.799 140.021 213.784 139.001 213.878 137.976C214.255 137.755 214.637 137.553 215.018 137.348Z" fill="#00E3FD"/>
<path d="M224.072 139.689C223.466 141.259 220.979 141.416 219.782 140.448C219.169 139.947 219.221 139.176 219.09 138.466C219.502 138.38 219.913 138.294 220.325 138.208C220.392 138.761 220.037 139.636 220.635 139.932C221.555 140.728 223.406 140.137 222.995 138.731C222.318 137.968 221.439 138.174 220.5 137.942C221.596 136.484 224.636 137.751 224.072 139.689Z" fill="#00E3FD"/>
<path d="M228.159 137.392C229.232 138.099 230.492 138.731 231.383 139.666L231.603 140.691C230.863 140.276 230.137 139.827 229.415 139.374C229.389 139.935 229.367 140.496 229.341 141.057C228.937 141.046 228.537 141.038 228.133 141.027C228.133 139.816 228.133 138.604 228.159 137.392Z" fill="#00E3FD"/>
<path d="M231.906 137.344C232.291 137.549 232.673 137.763 233.054 137.979C233.144 139.012 233.129 140.029 233.133 141.061C232.71 141.046 232.287 141.031 231.869 141.012C231.88 139.789 231.88 138.567 231.906 137.344Z" fill="#00E3FD"/>
<path d="M79.3349 137.366C80.7447 137.366 83.217 136.876 84.1444 138.233C84.3015 139.176 83.6469 139.303 83.0897 139.86C83.516 140.231 83.9457 140.601 84.372 140.972C83.8298 141.009 83.2872 141.042 82.745 141.072C82.4197 140.706 82.0947 140.339 81.7694 139.969C81.4741 139.943 81.175 139.917 80.8759 139.887C80.4047 140.911 80.5689 141.05 79.2899 141.14C79.2787 139.752 79.9033 138.686 79.3349 137.366ZM80.4267 138.099C80.5239 138.446 80.6433 138.791 80.7704 139.128C81.4024 139.147 82.0349 139.135 82.6669 139.131C82.7267 138.813 82.7829 138.499 82.8427 138.182C82.0424 138.141 81.2232 138.072 80.4267 138.099Z" fill="#00E3FD"/>
<path d="M115.859 137.927C116.274 137.77 116.686 137.609 117.101 137.452C117.105 138.387 117.101 139.322 117.101 140.257C118.354 140.249 119.61 140.242 120.863 140.261C120.844 140.522 120.822 140.784 120.803 141.05C119.15 141.038 117.497 141.061 115.841 141.053C115.844 140.014 115.848 138.97 115.859 137.927Z" fill="#00E3FD"/>
<path d="M182.379 137.479C182.383 138.668 182.364 139.857 182.357 141.042C181.923 141.042 181.489 141.039 181.055 141.035C181.044 140.033 181.044 139.03 181.014 138.028C181.474 137.856 181.93 137.673 182.379 137.479Z" fill="#00E3FD"/>
<path d="M130.137 138.806C131.408 138.686 132.702 138.746 133.978 138.728L134.022 139.535C133.132 139.543 132.246 139.55 131.356 139.558C131.341 140.059 131.326 140.56 131.311 141.065C130.907 141.057 130.507 141.046 130.107 141.039C130.103 140.294 130.081 139.547 130.137 138.806Z" fill="#00E3FD"/>
</svg>
