<svg width="34" height="18" viewBox="0 0 34 18" fill="none" xmlns="http://www.w3.org/2000/svg">
<rect width="34" height="18" rx="4" fill="#4CAF50" fill-opacity="0.15"/>
<path d="M10.65 10.42H8.82V13H7.84V5.77H10.65C12.07 5.77 12.98 6.7 12.98 8.09C12.98 9.44 12.06 10.42 10.65 10.42ZM10.48 6.65H8.82V9.54H10.44C11.41 9.54 11.95 8.97 11.95 8.08C11.95 7.17 11.4 6.65 10.48 6.65ZM15.1647 13.12C14.1147 13.12 13.4947 12.53 13.4947 11.64C13.4947 10.74 14.1647 10.18 15.3147 10.09L16.8547 9.97V9.83C16.8547 9.01 16.3647 8.72 15.7047 8.72C14.9147 8.72 14.4647 9.07 14.4647 9.66H13.6447C13.6447 8.64 14.4847 7.97 15.7447 7.97C16.9547 7.97 17.7747 8.61 17.7747 9.93V13H16.9747L16.8747 12.21C16.6247 12.77 15.9547 13.12 15.1647 13.12ZM15.4347 12.39C16.3247 12.39 16.8647 11.81 16.8647 10.89V10.63L15.6147 10.73C14.7847 10.81 14.4447 11.13 14.4447 11.61C14.4447 12.13 14.8247 12.39 15.4347 12.39ZM19.5365 6.95C19.1965 6.95 18.9165 6.67 18.9165 6.33C18.9165 5.98 19.1965 5.71 19.5365 5.71C19.8765 5.71 20.1565 5.98 20.1565 6.33C20.1565 6.67 19.8765 6.95 19.5365 6.95ZM19.0765 13V8.11H20.0165V13H19.0765ZM23.3412 13.12C21.9212 13.12 21.0612 12.06 21.0612 10.57C21.0612 9.07 21.9312 7.97 23.3812 7.97C24.1312 7.97 24.7612 8.3 25.0912 8.9V5.64H26.0212V13H25.1812L25.1012 12.11C24.7812 12.78 24.1212 13.12 23.3412 13.12ZM23.5312 12.27C24.4912 12.27 25.0812 11.56 25.0812 10.54C25.0812 9.54 24.4912 8.82 23.5312 8.82C22.5712 8.82 22.0112 9.54 22.0112 10.54C22.0112 11.55 22.5712 12.27 23.5312 12.27Z" fill="#4CAF50"/>
</svg>
