<svg width="18" height="18" viewBox="0 0 18 18" fill="none" xmlns="http://www.w3.org/2000/svg">
<path d="M5.28328 14C3.58489 14 2.7353 14 2.1313 13.6319C1.73888 13.395 1.42006 13.0506 1.21131 12.6382C0.897712 12.0126 0.981711 11.1863 1.15131 9.53287C1.29211 8.15325 1.36251 7.46344 1.70971 6.95644C1.9377 6.62331 2.2457 6.35113 2.6065 6.16263C3.1561 5.875 3.86569 5.875 5.28328 5.875L12.7168 5.875C14.1344 5.875 14.844 5.875 15.3936 6.16263C15.7544 6.35113 16.0624 6.62331 16.2904 6.95644C16.6376 7.46344 16.708 8.15325 16.8488 9.53369C17.0184 11.1863 17.1024 12.0134 16.788 12.6382C16.5797 13.0504 16.2614 13.3947 15.8696 13.6319C15.264 14 14.4152 14 12.7168 14M13 5.875V4.25C13 2.71762 13 1.95225 12.5312 1.47612C12.0624 1 11.3088 1 9.80005 1L8.20006 1C6.69127 1 5.93768 1 5.46888 1.47612C5.00008 1.95225 5.00008 2.71762 5.00008 4.25V5.875" stroke="white" stroke-linecap="round" stroke-linejoin="round"/>
<path d="M10.7139 12.2H7.46126C6.90131 12.2 6.62093 12.2 6.38224 12.2872C6.05795 12.4085 5.78552 12.6342 5.60975 12.9272C5.47242 13.152 5.40457 13.4408 5.26888 14.0176C5.05634 14.92 4.95007 15.3704 5.02283 15.732C5.11847 16.2136 5.41847 16.6216 5.83618 16.8376C6.14845 17 6.5866 17 7.46126 17H10.7131C11.5877 17 12.0259 17 12.3381 16.8376C12.755 16.6216 13.0559 16.2136 13.1515 15.732C13.2242 15.3704 13.118 14.92 12.9063 14.0176C12.7697 13.4416 12.7019 13.152 12.5646 12.928C12.3887 12.6346 12.116 12.4085 11.7913 12.2872C11.5542 12.2 11.2738 12.2 10.7131 12.2M13.9926 9H14" stroke="white" stroke-linecap="round" stroke-linejoin="round"/>
</svg>
