<svg width="65" height="40" viewBox="0 0 65 40" fill="none" xmlns="http://www.w3.org/2000/svg">
<path d="M8.23405 0.013916C12.1217 3.06818 15.9724 6.20385 19.8523 9.27362C20.2205 9.57013 20.2922 9.71742 20.2883 10.2077C20.2825 20.1108 20.2903 30.014 20.2845 39.9171C19.55 39.5411 18.8658 39.0818 18.1682 38.6419C12.1158 34.8434 6.07707 31.0159 0.0169841 27.2271C-0.0140237 20.3356 0.00729464 13.4422 0.00535665 6.55075C1.88714 5.03524 3.79218 3.54687 5.66816 2.02167C6.52087 1.35113 7.34064 0.62632 8.23405 0.013916Z" fill="#060DBC"/>
<path d="M30.2553 0C34.2495 3.19962 38.2573 6.38955 42.2476 9.59498C42.2301 19.6938 42.2514 29.7907 42.2456 39.8877C41.5111 39.5039 40.8193 39.0543 40.1235 38.6066C34.0964 34.847 28.1061 31 22.0634 27.2694C22.0072 22.0369 22.0576 16.8004 22.0382 11.5678C22.0537 9.86823 22.0014 8.16668 22.0712 6.46706C24.8425 4.37016 27.4859 2.10078 30.2553 0Z" fill="#0F56FC"/>
<path d="M52.238 0.00561523C56.2884 3.18004 60.3155 6.43586 64.3233 9.67036C64.302 18.6994 64.3194 27.7324 64.3117 36.7615C64.2923 37.8681 64.4144 38.9107 64.1566 39.9999C63.4609 39.3041 62.6024 38.9359 61.7904 38.4068C55.8465 34.6529 49.9589 30.9417 44.0151 27.1956C44.05 20.3118 44.0074 13.4262 44.0365 6.54245C46.7923 4.39322 49.4919 2.16453 52.238 0.00561523Z" fill="#00E3FD"/>
</svg>
