<svg width="40" height="40" viewBox="0 0 40 40" fill="none" xmlns="http://www.w3.org/2000/svg">
<rect width="40" height="40" rx="10" fill="#172349"/>
<path d="M25.9153 20.3982L26.9323 21.3039C27.1201 21.4606 27.2456 21.6794 27.2861 21.9206C27.3265 22.1618 27.2793 22.4096 27.1528 22.619L25.9266 24.7137C25.8315 24.8741 25.6956 25.0064 25.5328 25.0974C25.3682 25.1885 25.1833 25.2368 24.9951 25.238C24.8784 25.2387 24.7622 25.2212 24.6508 25.1862L23.3492 24.7565C23.1212 24.9027 22.8842 25.0336 22.6382 25.1491L22.3648 26.4687C22.3143 26.7115 22.1791 26.9284 21.9835 27.0807C21.7854 27.2358 21.5398 27.3177 21.2882 27.3125H18.7491C18.4976 27.3177 18.2519 27.2358 18.0538 27.0807C17.8586 26.9282 17.7239 26.7113 17.6736 26.4687L17.3991 25.1491C17.1563 25.0321 16.9208 24.9006 16.6937 24.7554L15.3876 25.1862C15.2762 25.2212 15.1601 25.2387 15.0433 25.238C14.8555 25.2366 14.671 25.1883 14.5067 25.0974C14.3441 25.0067 14.2083 24.8748 14.113 24.7149L12.8428 22.619C12.7108 22.4077 12.6603 22.1555 12.7009 21.9097C12.7415 21.6638 12.8704 21.4412 13.0633 21.2836L14.0792 20V19.6017L13.0622 18.6961C12.8744 18.5394 12.7489 18.3206 12.7085 18.0794C12.668 17.8381 12.7153 17.5904 12.8417 17.381L14.1118 15.2862C14.207 15.1259 14.3428 14.9935 14.5056 14.9026C14.6699 14.8117 14.8544 14.7633 15.0422 14.762C15.1579 14.7547 15.274 14.7653 15.3865 14.7935L16.6667 15.2435C16.8955 15.0972 17.1325 14.9664 17.3777 14.8509L17.6522 13.5312C17.7025 13.2887 17.8373 13.0718 18.0325 12.9192C18.2306 12.7642 18.4762 12.6823 18.7277 12.6875H21.2455C21.497 12.6823 21.7426 12.7642 21.9407 12.9192C22.1376 13.0734 22.2726 13.2905 22.321 13.5312L22.5955 14.8509C22.8392 14.9671 23.0743 15.0984 23.3008 15.2446L24.6081 14.8149C24.7532 14.7677 24.9065 14.7511 25.0583 14.7662C25.2101 14.7813 25.3571 14.8278 25.4901 14.9026C25.6532 14.9949 25.7882 15.1276 25.8838 15.2851L27.1528 17.381C27.2867 17.5905 27.3397 17.8415 27.302 18.0872C27.2643 18.333 27.1385 18.5566 26.9481 18.7164L25.9153 19.5961V20.3982Z" stroke="white" stroke-width="1.125"/>
<path d="M22.8125 20C22.8125 20.7459 22.5162 21.4613 21.9887 21.9887C21.4613 22.5162 20.7459 22.8125 20 22.8125C19.2541 22.8125 18.5387 22.5162 18.0113 21.9887C17.4838 21.4613 17.1875 20.7459 17.1875 20C17.1875 19.2541 17.4838 18.5387 18.0113 18.0113C18.5387 17.4838 19.2541 17.1875 20 17.1875C20.7459 17.1875 21.4613 17.4838 21.9887 18.0113C22.5162 18.5387 22.8125 19.2541 22.8125 20Z" stroke="white" stroke-width="1.125"/>
</svg>
