<svg width="14" height="14" viewBox="0 0 14 14" fill="none" xmlns="http://www.w3.org/2000/svg">
<path d="M10.2083 12.8333L10.2083 9.33325" stroke="white" stroke-opacity="0.7" stroke-miterlimit="10" stroke-linecap="round" stroke-linejoin="round"/>
<path d="M10.2083 3.50008L10.2083 1.16675" stroke="white" stroke-opacity="0.7" stroke-miterlimit="10" stroke-linecap="round" stroke-linejoin="round"/>
<path d="M8.16667 5.83341C8.16667 6.961 9.08075 7.87508 10.2083 7.87508C11.3359 7.87508 12.25 6.961 12.25 5.83341C12.25 4.70583 11.3359 3.79175 10.2083 3.79175C9.08075 3.79175 8.16667 4.70583 8.16667 5.83341Z" stroke="white" stroke-opacity="0.7" stroke-miterlimit="10" stroke-linecap="round" stroke-linejoin="round"/>
<path d="M3.79175 12.8333L3.79175 10.5" stroke="white" stroke-opacity="0.7" stroke-miterlimit="10" stroke-linecap="round" stroke-linejoin="round"/>
<path d="M3.79175 4.66675L3.79175 1.16675" stroke="white" stroke-opacity="0.7" stroke-miterlimit="10" stroke-linecap="round" stroke-linejoin="round"/>
<path d="M1.74992 8.16667C1.74992 9.29425 2.664 10.2083 3.79159 10.2083C4.91917 10.2083 5.83325 9.29425 5.83325 8.16667C5.83325 7.03909 4.91917 6.125 3.79159 6.125C2.664 6.125 1.74992 7.03909 1.74992 8.16667Z" stroke="white" stroke-opacity="0.7" stroke-miterlimit="10" stroke-linecap="round" stroke-linejoin="round"/>
</svg>
