<svg width="22" height="22" viewBox="0 0 22 22" fill="none" xmlns="http://www.w3.org/2000/svg">
<path d="M2.75 9.16659C2.75 5.70984 2.75 3.981 3.82433 2.90759C4.89867 1.83417 6.62658 1.83325 10.0833 1.83325L11.9167 1.83325C15.3734 1.83325 17.1022 1.83325 18.1757 2.90759C19.2491 3.98192 19.25 5.70984 19.25 9.16659V12.8333C19.25 16.29 19.25 18.0188 18.1757 19.0923C17.1013 20.1657 15.3734 20.1666 11.9167 20.1666H10.0833C6.62658 20.1666 4.89775 20.1666 3.82433 19.0923C2.75092 18.0179 2.75 16.29 2.75 12.8333L2.75 9.16659Z" stroke="white"/>
<path d="M7.3335 9.1665L14.6668 9.1665M7.3335 12.8332H11.9168" stroke="white" stroke-linecap="round"/>
</svg>
