<svg width="18" height="18" viewBox="0 0 18 18" fill="none" xmlns="http://www.w3.org/2000/svg">
<path d="M17 4L11.8572 8.90902M11.0002 13L5 13M8.42881 9.72706H5" stroke="white" stroke-linecap="round" stroke-linejoin="round"/>
<path d="M12 4H12.0979M16.9016 9H17" stroke="white" stroke-linecap="round" stroke-linejoin="round"/>
<path d="M14 12.5554V16.1113C14 16.347 13.9087 16.573 13.7462 16.7397C13.5837 16.9064 13.3633 17 13.1335 17H1.86653C1.63671 17 1.41631 16.9064 1.2538 16.7397C1.09129 16.573 1 16.347 1 16.1113L1 1.88875C1 1.65304 1.09129 1.42698 1.2538 1.26031C1.41631 1.09364 1.63671 1 1.86653 1L7.93347 1" stroke="white" stroke-linecap="round" stroke-linejoin="round"/>
</svg>
