<svg width="47" height="18" viewBox="0 0 47 18" fill="none" xmlns="http://www.w3.org/2000/svg">
<rect width="47" height="18" rx="4" fill="#FD5353" fill-opacity="0.15"/>
<path d="M8.29 10.43V5.77H9.27V10.37C9.27 11.53 9.91 12.17 11.06 12.17C12.2 12.17 12.83 11.52 12.83 10.37V5.77H13.82V10.43C13.82 12.09 12.76 13.12 11.06 13.12C9.35 13.12 8.29 12.1 8.29 10.43ZM16.2294 13H15.2894V8.11H16.1394L16.2394 8.86C16.5494 8.3 17.1694 7.97 17.8594 7.97C19.1494 7.97 19.7394 8.76 19.7394 10.01V13H18.7994V10.22C18.7994 9.23 18.3394 8.83 17.6194 8.83C16.7394 8.83 16.2294 9.46 16.2294 10.41V13ZM21.0413 15.19V8.11H21.8913L21.9613 8.99C22.2913 8.32 22.9513 7.97 23.7313 7.97C25.1313 7.97 26.0013 9.02 26.0013 10.52C26.0013 12.01 25.1813 13.13 23.7313 13.13C22.9513 13.13 22.3013 12.8 21.9813 12.2V15.19H21.0413ZM21.9913 10.56C21.9913 11.56 22.5713 12.28 23.5313 12.28C24.4913 12.28 25.0613 11.56 25.0613 10.56C25.0613 9.55 24.4913 8.83 23.5313 8.83C22.5713 8.83 21.9913 9.54 21.9913 10.56ZM28.4674 13.12C27.4174 13.12 26.7974 12.53 26.7974 11.64C26.7974 10.74 27.4674 10.18 28.6174 10.09L30.1574 9.97V9.83C30.1574 9.01 29.6674 8.72 29.0074 8.72C28.2174 8.72 27.7674 9.07 27.7674 9.66H26.9474C26.9474 8.64 27.7874 7.97 29.0474 7.97C30.2574 7.97 31.0774 8.61 31.0774 9.93V13H30.2774L30.1774 12.21C29.9274 12.77 29.2574 13.12 28.4674 13.12ZM28.7374 12.39C29.6274 12.39 30.1674 11.81 30.1674 10.89V10.63L28.9174 10.73C28.0874 10.81 27.7474 11.13 27.7474 11.61C27.7474 12.13 28.1274 12.39 28.7374 12.39ZM32.8392 6.95C32.4992 6.95 32.2192 6.67 32.2192 6.33C32.2192 5.98 32.4992 5.71 32.8392 5.71C33.1792 5.71 33.4592 5.98 33.4592 6.33C33.4592 6.67 33.1792 6.95 32.8392 6.95ZM32.3792 13V8.11H33.3192V13H32.3792ZM36.6439 13.12C35.2239 13.12 34.3639 12.06 34.3639 10.57C34.3639 9.07 35.2339 7.97 36.6839 7.97C37.4339 7.97 38.0639 8.3 38.3939 8.9V5.64H39.3239V13H38.4839L38.4039 12.11C38.0839 12.78 37.4239 13.12 36.6439 13.12ZM36.8339 12.27C37.7939 12.27 38.3839 11.56 38.3839 10.54C38.3839 9.54 37.7939 8.82 36.8339 8.82C35.8739 8.82 35.3139 9.54 35.3139 10.54C35.3139 11.55 35.8739 12.27 36.8339 12.27Z" fill="#FD5353"/>
</svg>
